<svg width="17" height="17" viewBox="0 0 17 17" fill="none" xmlns="http://www.w3.org/2000/svg">
<path id="Clip 21" fill-rule="evenodd" clip-rule="evenodd" d="M8.67522 1.95408C10.8059 1.95408 11.0583 1.9623 11.8998 2.00188C12.6779 2.03848 13.1005 2.17253 13.3816 2.28493C13.7541 2.43393 14.02 2.61205 14.2993 2.89921C14.5782 3.18674 14.7512 3.46046 14.896 3.84396C15.0051 4.13336 15.1354 4.56839 15.1709 5.36938C15.2094 6.23571 15.2173 6.49561 15.2173 8.68908C15.2173 10.8825 15.2094 11.1424 15.1709 12.0088C15.1354 12.8098 15.0051 13.2448 14.896 13.5342C14.7512 13.9177 14.5782 14.1914 14.2993 14.4789C14.02 14.7661 13.7541 14.9442 13.3816 15.0932C13.1005 15.206 12.6779 15.3397 11.8998 15.3763C11.0583 15.4159 10.8062 15.4241 8.67522 15.4241C6.5442 15.4241 6.29211 15.4159 5.45059 15.3763C4.67254 15.3397 4.24997 15.206 3.96885 15.0932C3.59633 14.9442 3.33046 14.7661 3.05116 14.4789C2.77222 14.1914 2.5992 13.9177 2.45448 13.5342C2.34493 13.2448 2.21508 12.8098 2.17953 12.0088C2.14108 11.1424 2.1331 10.8825 2.1331 8.68908C2.1331 6.49561 2.14108 6.23571 2.17953 5.36938C2.21508 4.56839 2.34493 4.13336 2.45448 3.84396C2.5992 3.46046 2.77222 3.18674 3.05116 2.89921C3.33046 2.61205 3.59633 2.43393 3.96885 2.28493C4.24997 2.17253 4.67254 2.03848 5.45059 2.00188C6.29211 1.9623 6.54457 1.95408 8.67522 1.95408ZM8.67511 0.474915C6.50783 0.474915 6.23615 0.484249 5.38484 0.524201C4.53571 0.564152 3.95571 0.703049 3.4479 0.906167C2.92304 1.11601 2.47798 1.39679 2.03437 1.85343C1.59075 2.31045 1.31799 2.76821 1.11414 3.30849C0.916814 3.83122 0.781881 4.42825 0.74307 5.30233C0.704259 6.17865 0.69519 6.45831 0.69519 8.68925C0.69519 10.9202 0.704259 11.1999 0.74307 12.0762C0.781881 12.9503 0.916814 13.5473 1.11414 14.07C1.31799 14.6103 1.59075 15.0681 2.03437 15.5247C2.47798 15.9817 2.92304 16.2625 3.4479 16.4723C3.95571 16.6755 4.53571 16.8144 5.38484 16.8543C6.23615 16.8943 6.50783 16.9036 8.67511 16.9036C10.8424 16.9036 11.1141 16.8943 11.965 16.8543C12.8145 16.8144 13.3945 16.6755 13.9023 16.4723C14.4272 16.2625 14.8719 15.9817 15.3155 15.5247C15.7595 15.0681 16.0322 14.6103 16.2361 14.07C16.4334 13.5473 16.5683 12.9503 16.6071 12.0762C16.646 11.1999 16.655 10.9202 16.655 8.68925C16.655 6.45831 16.646 6.17865 16.6071 5.30233C16.5683 4.42825 16.4334 3.83122 16.2361 3.30849C16.0322 2.76821 15.7595 2.31045 15.3155 1.85343C14.8719 1.39679 14.4272 1.11601 13.9023 0.906167C13.3945 0.703049 12.8145 0.564152 11.965 0.524201C11.1141 0.484249 10.8424 0.474915 8.67511 0.474915ZM8.69112 4.4847C6.42628 4.4847 4.59017 6.3749 4.59017 8.70646C4.59017 11.0377 6.42628 12.9279 8.69112 12.9279C10.9556 12.9279 12.7917 11.0377 12.7917 8.70646C12.7917 6.3749 10.9556 4.4847 8.69112 4.4847ZM8.69106 11.4474C7.22095 11.4474 6.02905 10.2207 6.02905 8.70721C6.02905 7.19374 7.22095 5.96668 8.69106 5.96668C10.1612 5.96668 11.3527 7.19374 11.3527 8.70721C11.3527 10.2207 10.1612 11.4474 8.69106 11.4474ZM13.8684 4.28909C13.8684 4.82941 13.4432 5.26704 12.9183 5.26704C12.3938 5.26704 11.9683 4.82941 11.9683 4.28909C11.9683 3.74915 12.3938 3.31115 12.9183 3.31115C13.4432 3.31115 13.8684 3.74915 13.8684 4.28909Z" fill="black"/>
</svg>
