<svg width="17" height="15" viewBox="0 0 17 15" fill="none" xmlns="http://www.w3.org/2000/svg">
<path id="Mask Copy" fill-rule="evenodd" clip-rule="evenodd" d="M14.8102 2.37131C15.4883 1.90339 16.0087 1.16131 16.2529 0.277561C15.6179 0.711728 14.9165 1.02589 14.168 1.19589C13.5706 0.459228 12.7169 6.10352e-05 11.7721 6.10352e-05C9.95957 6.10352e-05 8.491 1.69548 8.491 3.78631C8.491 4.08339 8.51805 4.37256 8.57443 4.64881C5.84719 4.49048 3.4289 2.98464 1.8091 0.692144C1.52643 1.25339 1.3649 1.90339 1.3649 2.59673C1.3649 3.91006 1.94433 5.06923 2.8251 5.74923C2.28719 5.73006 1.7809 5.55756 1.33748 5.27589V5.32256C1.33748 7.15756 2.46814 8.68839 3.97176 9.03506C3.69557 9.12381 3.40643 9.16839 3.10586 9.16839C2.89481 9.16839 2.68795 9.14548 2.4891 9.10131C2.90586 10.6051 4.11843 11.7013 5.55538 11.7305C4.43119 12.7467 3.01595 13.3513 1.47843 13.3513C1.21367 13.3513 0.951571 13.3351 0.69519 13.2992C2.14814 14.373 3.8731 15.0001 5.72719 15.0001C11.7657 15.0001 15.0659 9.23006 15.0659 4.22631C15.0659 4.06173 15.064 3.89798 15.0575 3.73673C15.6986 3.20256 16.2567 2.53506 16.6952 1.77548C16.1062 2.07673 15.4735 2.28048 14.8102 2.37131Z" fill="black"/>
</svg>
